<svg width="619" height="857" viewBox="0 0 619 857" fill="none" xmlns="http://www.w3.org/2000/svg">
<path d="M1066.93 452.329L1066.93 452.316C1066.28 447.171 1065.51 442.05 1064.63 436.955L1066.6 436.615C1064.83 426.337 1062.6 416.163 1059.95 406.098L1058.02 406.607C1055.38 396.598 1052.33 386.696 1048.89 376.906L1050.77 376.243C1047.33 366.443 1043.49 356.757 1039.3 347.19L1037.47 347.992C1033.33 338.53 1028.83 329.183 1024.01 319.956L1025.79 319.031C1020.99 309.834 1015.87 300.758 1010.46 291.809L1008.75 292.843C1003.4 283.996 997.776 275.271 991.893 266.673L993.544 265.544C987.683 256.978 981.571 248.54 975.236 240.234L973.645 241.447C967.365 233.213 960.864 225.109 954.171 217.139L955.702 215.852C949.014 207.889 942.135 200.061 935.091 192.372L933.617 193.723C926.602 186.067 919.424 178.548 912.11 171.172L913.53 169.764C906.188 162.36 898.709 155.101 891.121 147.991L889.754 149.451C882.15 142.326 874.436 135.351 866.639 128.531L867.956 127.025C860.083 120.138 852.125 113.408 844.112 106.841L842.845 108.388C838.815 105.085 834.771 101.823 830.716 98.6036C826.822 95.5391 822.917 92.5123 819.003 89.5258L820.216 87.9359C812.282 81.881 804.311 75.9908 796.32 70.2856L795.158 71.9135C787.036 66.1153 778.893 60.5094 770.745 55.1172L771.848 53.4493C763.491 47.9188 755.127 42.6117 746.774 37.5511L745.737 39.2617C737.162 34.0668 728.599 29.1335 720.067 24.4868L721.023 22.7303C712.171 17.9094 703.35 13.3945 694.581 9.21381L693.72 11.0192C684.627 6.68439 675.593 2.71198 666.641 -0.867493L667.383 -2.72455C657.972 -6.48779 648.646 -9.82043 639.431 -12.6865L638.837 -10.7768C629.177 -13.7814 619.649 -16.268 610.281 -18.1962L610.684 -20.1551C600.706 -22.209 590.9 -23.6359 581.305 -24.3856L581.149 -22.3916C571.109 -23.176 561.314 -23.2112 551.803 -22.4429L551.642 -24.4365C541.588 -23.6243 531.836 -21.924 522.434 -19.2684L522.977 -17.3438C518.271 -16.0143 513.655 -14.4426 509.135 -12.6202L509.125 -12.616L509.114 -12.6119C504.785 -10.9225 500.539 -9.0058 496.368 -6.87665L495.459 -8.65802C487.169 -4.42609 479.183 0.627686 471.441 6.38269L472.634 7.98779C465.297 13.442 458.171 19.54 451.204 26.1818L449.824 24.7341C443.142 31.104 436.616 37.9607 430.199 45.2128L431.697 46.5382C425.589 53.4407 419.577 60.7087 413.619 68.2646L412.048 67.0263C406.29 74.3292 400.588 81.8938 394.906 89.6484L396.519 90.8305C391.013 98.346 385.524 106.043 380.017 113.86L378.382 112.708C373.729 119.313 369.067 125.999 364.376 132.726C363.623 133.806 362.869 134.887 362.114 135.969L363.755 137.113C358.374 144.828 352.946 152.595 347.447 160.35L345.815 159.193C340.355 166.892 334.824 174.578 329.194 182.194L330.802 183.383C325.166 191.008 319.426 198.566 313.556 205.998L311.987 204.758C306.107 212.202 300.097 219.518 293.929 226.645L295.442 227.953C292.33 231.549 289.176 235.099 285.979 238.594L285.972 238.6C282.608 242.243 279.196 245.826 275.742 249.354L274.313 247.955C267.4 255.017 260.314 261.864 253.104 268.543L254.463 270.011C247.198 276.741 239.81 283.3 232.348 289.736L231.042 288.222C223.566 294.671 216.011 301 208.427 307.261L209.7 308.803C202.075 315.097 194.422 321.319 186.794 327.518L185.533 325.965C185.253 326.193 184.973 326.421 184.693 326.648C177.303 332.653 169.933 338.641 162.629 344.66L163.9 346.203C156.275 352.486 148.726 358.797 141.301 365.191L139.995 363.676C132.501 370.13 125.129 376.671 117.934 383.353L119.295 384.818C112.074 391.524 105.036 398.367 98.2316 405.404L96.7938 404.014C89.937 411.105 83.3133 418.396 76.9768 425.941L78.5084 427.227C72.2195 434.716 66.2182 442.452 60.5566 450.493L58.9213 449.341C53.2929 457.335 47.9957 465.629 43.0814 474.279L44.8204 475.267C42.4168 479.497 40.1057 483.813 37.8932 488.219L37.8877 488.23C35.6685 492.584 33.5475 497.029 31.526 501.554L29.6999 500.738C25.6986 509.695 22.0864 518.96 18.8726 528.455L20.767 529.097C17.6294 538.367 14.8731 547.859 12.5073 557.499L10.565 557.023C8.20857 566.624 6.23786 576.37 4.6614 586.188L6.63611 586.505C5.07068 596.254 3.89614 606.073 3.12094 615.891L1.12714 615.734C0.342678 625.67 -0.0350796 635.604 0.0025572 645.464L2.00254 645.456C2.04054 655.411 2.50444 665.287 3.40283 675.007L1.41131 675.191C2.33603 685.196 3.71846 695.039 5.56835 704.639L7.53222 704.26C9.42877 714.102 11.819 723.679 14.7122 732.902L12.8039 733.501C15.8333 743.158 19.4115 752.437 23.5507 761.235L25.3604 760.384C29.626 769.451 34.4884 777.993 39.9583 785.897L38.3137 787.035C44.0424 795.314 50.436 802.913 57.5095 809.706L58.8948 808.263C62.4271 811.655 66.1299 814.841 70.0049 817.805C73.8169 820.721 77.8012 823.426 81.9506 825.933L80.9165 827.645C89.1249 832.603 97.9588 836.79 107.358 840.307L108.059 838.434C116.86 841.728 126.175 844.433 135.957 846.631L135.519 848.582C144.777 850.663 154.437 852.29 164.455 853.536L164.702 851.551C174.092 852.719 183.807 853.55 193.812 854.103L193.701 856.1C203.239 856.628 213.032 856.903 223.049 856.979L223.064 854.979C232.634 855.05 242.414 854.939 252.377 854.688L252.427 856.687C262.056 856.445 271.851 856.073 281.788 855.613L281.696 853.615C291.333 853.168 301.107 852.637 310.996 852.06L311.112 854.057C320.782 853.492 330.56 852.883 340.423 852.263L340.298 850.267C341.68 850.18 343.065 850.093 344.45 850.006C352.781 849.482 361.175 848.955 369.615 848.444L369.735 850.44C379.453 849.852 389.234 849.287 399.057 848.775L398.953 846.778C408.704 846.27 418.499 845.816 428.321 845.445L428.396 847.444C438.163 847.076 447.955 846.791 457.752 846.619L457.717 844.62C462.619 844.534 467.522 844.476 472.425 844.451C477.664 844.425 482.902 844.435 488.137 844.477L488.121 846.477C498.59 846.561 509.05 846.774 519.487 847.08L519.545 845.081C530.034 845.388 540.499 845.788 550.926 846.244L550.838 848.242C561.324 848.701 571.775 849.216 582.176 849.75L582.279 847.753C588.232 848.058 594.174 848.37 600.095 848.681C604.613 848.918 609.119 849.155 613.611 849.388L613.508 851.385C624.021 851.93 634.471 852.454 644.842 852.918L644.931 850.92C655.458 851.391 665.9 851.798 676.245 852.101L676.187 854.101C686.745 854.41 697.204 854.61 707.549 854.656L707.558 852.656C718.123 852.704 728.564 852.59 738.866 852.268L738.928 854.267C749.517 853.936 759.963 853.385 770.248 852.563L770.089 850.569C780.617 849.728 790.971 848.601 801.131 847.134L801.417 849.113C811.907 847.599 822.197 845.722 832.267 843.423L831.821 841.473C842.064 839.135 852.07 836.358 861.819 833.079L862.456 834.975C872.422 831.623 882.126 827.749 891.547 823.283L890.69 821.476C895.374 819.255 899.987 816.888 904.524 814.366C908.858 811.957 913.127 809.405 917.329 806.717L918.406 808.402C926.797 803.034 934.916 797.13 942.746 790.74L941.482 789.19C949.134 782.946 956.51 776.233 963.592 769.098L965.011 770.507C972.015 763.452 978.731 755.989 985.141 748.166L983.595 746.899C989.864 739.248 995.84 731.25 1001.51 722.946L1003.16 724.074C1008.78 715.846 1014.09 707.322 1019.09 698.544L1017.35 697.555C1022.26 688.934 1026.85 680.067 1031.13 670.992L1032.94 671.845C1037.2 662.809 1041.14 653.572 1044.74 644.17L1042.87 643.454C1046.44 634.159 1049.67 624.703 1052.57 615.125L1054.48 615.704C1057.38 606.114 1059.94 596.403 1062.14 586.608L1060.19 586.17C1062.38 576.429 1064.22 566.606 1065.69 556.739L1067.67 557.034C1069.15 547.099 1070.26 537.118 1070.98 527.131L1068.99 526.986C1069.71 517.008 1070.05 507.025 1069.99 497.075L1071.99 497.063C1071.93 487.001 1071.46 476.972 1070.58 467.016L1068.58 467.193C1068.14 462.218 1067.59 457.262 1066.93 452.329Z" stroke="#DDC300" stroke-width="4" stroke-dasharray="30 30"/>
</svg>
